<svg xmlns="http://www.w3.org/2000/svg" width="25" height="27" viewBox="0 0 100 100">
  <path fill-rule="evenodd" clip-rule="evenodd" d="M92.3797 0H7.62387C3.41742 0 0 3.41048 0 7.61885V92.3776C0 96.5878 3.41742 100 7.62387 100H92.3797C96.5896 100 100 96.5878 100 92.3776V7.61885C100 3.41048 96.5896 0 92.3797 0Z" fill="rgb(231, 121, 43)"></path>
  <path fill-rule="evenodd" clip-rule="evenodd" d="M47.649 27H55.5335V74H46.5399V39.0533C45.7578 39.867 44.9089 40.5687 43.9967 41.162C43.0863 41.7553 42.0844 42.2492 41 42.6436V34.2125C42.6064 33.2905 43.9686 32.2264 45.0882 31.0184C46.2077 29.8104 47.0619 28.4709 47.649 27ZM74.2751 33.8501L68.0967 56.6759H74.3444L74.8835 33.8501H74.2751ZM69.9892 27H83.1913V56.6759H89V63.6912H83.1913V74H74.042V63.6912H60.971V55.6544L69.9892 27Z" fill="#FFFEFD"></path>
  <path d="M33.2049 27L40 74H27.8477L27.2556 65.5522H22.9981L22.2932 74H10L16.0338 27H33.2049ZM26.9173 57.2205C26.3158 51.8983 25.7143 45.3278 25.1128 37.509C23.9098 46.489 23.1579 53.0595 22.8571 57.2205H26.9173Z" fill="#FFFEFD"></path>
</svg>
